<svg width="42" height="42" viewBox="0 0 42 42" fill="none" xmlns="http://www.w3.org/2000/svg">
<circle cx="21" cy="21" r="21" fill="#073C1E"/>
<path d="M32.4939 10.8708C32.2382 9.60772 31.0069 8.79115 29.7439 9.04685C28.4807 9.30259 27.6642 10.5337 27.9199 11.7968C28.0879 12.6266 28.6768 13.2636 29.4192 13.5306L31.7868 13.0513C32.367 12.5166 32.6619 11.7006 32.4939 10.8708Z" fill="white"/>
<path d="M9.48901 15.7649C9.15818 16.3895 9.39604 17.164 10.0207 17.4948C10.6451 17.8256 11.4193 17.5877 11.7503 16.9632C12.0812 16.3389 11.8432 15.5646 11.2188 15.2338C10.5945 14.9028 9.81975 15.1407 9.48901 15.7649Z" fill="white"/>
<path d="M20.0378 15.7649C19.707 16.3895 19.9449 17.164 20.5695 17.4948C21.1939 17.8256 21.9681 17.5877 22.2991 16.9632C22.63 16.3389 22.392 15.5646 21.7676 15.2338C21.1433 14.9028 20.3686 15.1407 20.0378 15.7649Z" fill="white"/>
<path d="M35.2544 20.7669C35.2523 20.7284 35.2484 20.6896 35.2405 20.6507L35.0706 19.8115L33.3431 21.5598L33.661 21.7806C34.1448 22.1165 34.265 22.7833 33.9292 23.2671C33.7295 23.5546 33.4013 23.7261 33.051 23.7261H33.0507C32.934 23.7261 32.8197 23.7066 32.7109 23.6699V31.4892C32.7109 32.1975 33.2852 32.7713 33.9933 32.7713C34.7012 32.7713 35.2754 32.1975 35.2754 31.4892V21.4467V20.9922C35.2754 20.9152 35.2674 20.8402 35.2544 20.7669Z" fill="white"/>
<path d="M30.9084 22.5044C30.8789 22.4753 30.8521 22.4446 30.8267 22.4131L29.666 21.6071V22.1839V31.4892C29.666 32.1975 30.2402 32.7714 30.9484 32.7714C31.6563 32.7714 32.2305 32.1975 32.2305 31.4892V23.388L31.3235 22.7581C31.1692 22.7072 31.0273 22.6218 30.9084 22.5044Z" fill="white"/>
<path d="M27.4523 25.1029H25.9494V20.8655H26.3008V20.5367H22.9244L22.7072 20.1605C22.7934 20.0843 22.8488 19.9742 22.8488 19.85C22.8488 19.6203 22.6626 19.4341 22.4329 19.4341H22.2878L22.1112 19.1282L21.8892 19.2564L21.9918 19.4341H20.807L20.2881 18.0206C20.2503 17.7789 20.1356 17.5706 19.9354 17.4604C19.4967 17.2193 18.7488 17.2943 18.259 18.0264C17.5915 19.0369 17.3201 19.7378 17.1393 20.9969C17.0847 21.816 17.5294 22.1088 17.9814 22.2538H16.843V25.1029H15.3999V20.8655H15.7513V20.5367H12.3749L12.1577 20.1605C12.2439 20.0843 12.2994 19.9741 12.2994 19.85C12.2994 19.6203 12.1132 19.4341 11.8835 19.4341H11.7384L11.5618 19.1282L11.3397 19.2564L11.4423 19.4341H10.2576L9.73863 18.0205C9.70087 17.7789 9.58615 17.5706 9.38599 17.4604C8.94728 17.2193 8.19934 17.2943 7.70953 18.0263C7.04205 19.0369 6.77069 19.7378 6.58988 20.9969C6.53521 21.816 6.97991 22.1088 7.43199 22.2538H6.29359V25.1029H5V25.5111H27.4523V25.1029ZM19.8907 19.3514L20.1263 19.9933C20.1864 20.1571 20.3422 20.2659 20.5167 20.2659H22.4329C22.4456 20.2659 22.4575 20.2633 22.4698 20.2622L22.6283 20.5367H20.0565V20.8655H22.5112V25.1029H21.8215C22.0172 24.9976 22.1502 24.791 22.1502 24.5532V21.7389C22.1502 21.3944 21.871 21.1151 21.5264 21.1151H19.1764C19.3416 20.4927 19.6332 19.8749 19.8907 19.3514ZM20.2031 22.3628H20.9026V24.5532C20.9026 24.791 21.0356 24.9976 21.2313 25.1029H20.2031V22.3628ZM9.34122 19.3514L9.57687 19.9933C9.63698 20.1571 9.79277 20.2659 9.96726 20.2659H11.8835C11.8961 20.2659 11.908 20.2633 11.9204 20.2622L12.0789 20.5367H9.5071V20.8655H11.9618V25.1029H11.272C11.4677 24.9976 11.6008 24.791 11.6008 24.5532V21.7389C11.6008 21.3944 11.3215 21.1151 10.9769 21.1151H8.62692C8.79219 20.4927 9.08375 19.8749 9.34122 19.3514ZM9.65369 22.3628H10.3531V24.5532C10.3531 24.791 10.4862 24.9976 10.6819 25.1029H9.65369V22.3628Z" fill="white"/>
<path d="M32.419 22.494C32.2514 22.6636 32.037 22.7689 31.8047 22.8003L32.5788 23.3379C32.7231 23.4381 32.888 23.4862 33.0514 23.4862C33.314 23.4862 33.5723 23.3618 33.7336 23.1297C33.9948 22.7534 33.9017 22.2364 33.5253 21.9751L33.1733 21.7306L32.419 22.494Z" fill="white"/>
<path d="M36.2631 17.6596C35.5491 15.199 34.6459 13.7382 33.5045 13.1999C33.3313 13.0795 33.1115 13.0268 32.8884 13.0719L28.9614 13.8669C28.7835 13.903 28.6321 13.9959 28.5206 14.1222C28.0189 14.5754 27.187 15.9096 27.7087 19.6328C27.7408 19.8619 27.8671 20.0672 28.0571 20.1991L30.6176 21.9772C30.5414 21.6344 30.6343 21.261 30.899 20.9932L31.3917 20.4946L29.3054 19.0459C29.1489 17.7483 29.1902 16.8831 29.2877 16.3173L29.5264 16.3219C29.433 16.84 29.3863 17.6571 29.5297 18.9113L31.5618 20.3224L34.2567 17.5951C33.9787 16.7556 33.6682 16.0697 33.3585 15.5951L33.5733 15.488C33.9088 16.0067 34.2351 16.7441 34.5285 17.6594L31.0686 21.1609C30.7466 21.4868 30.7497 22.0121 31.0756 22.3342C31.2374 22.4939 31.4481 22.5737 31.6587 22.5737C31.8727 22.5737 32.0866 22.4914 32.2489 22.3272L36.0564 18.4739C36.2678 18.26 36.3469 17.9484 36.2631 17.6596Z" fill="white"/>
<path d="M16.0886 13.872C17.2347 13.872 18.1637 12.9431 18.1637 11.797C18.1637 10.651 17.2347 9.72205 16.0886 9.72205C14.9427 9.72205 14.0137 10.651 14.0137 11.797C14.0137 12.9431 14.9427 13.872 16.0886 13.872ZM15.1281 10.2409L15.2628 10.4743L15.3561 10.4204L15.2204 10.1854C15.4638 10.0539 15.7408 9.97771 16.0348 9.96914V10.4744H16.1426V9.96916C16.4366 9.97773 16.7136 10.0539 16.957 10.1853L16.8213 10.4205L16.9145 10.4744L17.0494 10.2409C17.2913 10.3906 17.4952 10.5945 17.6448 10.8364L17.4114 10.9712L17.4653 11.0645L17.7004 10.9288C17.8318 11.1722 17.908 11.4492 17.9166 11.7431H17.4113L17.4113 11.8509L17.9166 11.8509C17.908 12.1449 17.8318 12.4219 17.7004 12.6654L17.4653 12.5297L17.4114 12.6229L17.6448 12.7577C17.4951 12.9996 17.2913 13.2035 17.0493 13.3532L16.9145 13.1198L16.8213 13.1737L16.957 13.4088C16.7136 13.5402 16.4366 13.6163 16.1426 13.6249V13.1197H16.0348V13.6249C15.7409 13.6163 15.4638 13.5402 15.2204 13.4087L15.356 13.1737L15.2628 13.1198L15.1281 13.3532C14.8862 13.2035 14.6823 12.9996 14.5326 12.7577L14.7659 12.6229L14.712 12.5297L14.4771 12.6653C14.3456 12.4219 14.2695 12.1449 14.2609 11.8509L14.7661 11.8509L14.766 11.7431L14.2609 11.7432C14.2694 11.4492 14.3456 11.1722 14.477 10.9288L14.712 11.0644L14.7659 10.9711L14.5326 10.8365C14.6823 10.5945 14.8862 10.3906 15.1281 10.2409Z" fill="white"/>
<path d="M15.7702 11.9135L15.8298 12.0173L16.0415 11.8959L16.1372 12.1027L16.2862 12.0338L16.1845 11.8139L17.2806 11.1852L17.221 11.0813L16.134 11.7048L15.7116 10.7917L15.5625 10.8607L15.991 11.7869L15.7702 11.9135Z" fill="white"/>
</svg>
