<svg width="184" height="41" viewBox="0 0 184 41" fill="none" xmlns="http://www.w3.org/2000/svg">
<path d="M42.6889 32.3369V7.73135H48.5018C56.0077 7.73135 58.9422 11.1176 58.9422 19.5827C58.9422 28.0478 56.0077 32.3369 49.1791 32.3369H42.6889ZM50.7593 38.714C60.4659 38.714 66.9558 30.9826 66.9558 19.5827C66.9558 8.18278 59.7322 1.24147 49.5742 1.24147H35.0703V38.714H50.7593H50.7593ZM77.0014 38.714V10.9481H69.6648V38.714H77.0014ZM77.0014 7.61858V0.790039H69.6648V7.61858H77.0014Z" fill="white"/>
<path d="M105.329 25.8471C104.256 30.5309 101.434 33.1834 96.8067 33.1834C90.7119 33.1834 87.6643 28.2737 87.6643 19.9778C87.6643 11.7946 90.7119 6.77215 97.2018 6.77215C100.927 6.77215 104.256 9.31159 105.329 13.5443H113.173C112.439 5.98206 106.514 0 97.1454 0C86.4228 0 79.707 7.7314 79.707 20.4292C79.707 33.2962 87.2129 40.012 97.0326 40.012C105.724 40.012 111.593 34.3686 113.173 25.8471H105.329ZM121.864 22.1222C122.146 18.2848 124.573 16.0273 127.507 16.0273C130.386 16.0273 133.094 18.0026 133.207 22.1222H121.864ZM140.769 26.7499C140.769 15.7451 136.254 10.2144 127.733 10.2144C119.211 10.2144 114.301 15.7451 114.301 24.3233C114.301 34.3686 118.929 39.4477 128.184 39.4477C134.11 39.4477 138.681 36.231 140.374 30.5309H132.812C132.304 32.4497 130.216 33.6349 127.846 33.6349C124.234 33.6349 121.864 30.9259 121.638 26.7499H140.769ZM150.645 38.714V24.2669C150.645 19.8083 152.846 17.5511 157.361 17.5511C158.038 17.5511 158.715 17.6075 159.393 17.7203V10.2144H158.433C155.442 10.2144 152.62 10.5531 150.194 14.278V10.9482H143.309V38.7141H150.645L150.645 38.714ZM177.17 27.6528C177.17 31.0954 175.815 33.0706 172.881 33.0706C169.89 33.0706 168.648 31.039 168.648 27.54V16.1401H183.998V10.9482H168.648V3.4423H161.425V28.2737C161.425 34.2558 164.641 39.4477 172.768 39.4477C180.612 39.4477 183.998 34.1994 183.998 28.3301V20.4292H177.17V27.6528Z" fill="white"/>
<path fill-rule="evenodd" clip-rule="evenodd" d="M5.5433 15.7295C5.21387 10.6454 9.17952 6.56283 13.8992 6.25731C19.0851 5.92238 23.118 9.91751 23.4236 14.6304C23.9394 22.5845 14.4967 27.2394 8.42051 21.7902C7.07193 20.5809 5.72006 18.4544 5.54331 15.7295L5.5433 15.7295ZM14.1887 0.76556C11.3843 1.34874 12.4354 3.68183 10.0076 4.42073C8.47183 4.88816 7.99885 4.07271 6.80226 3.9364C5.5101 3.78912 4.54319 4.51029 4.09671 5.15324C3.45847 6.07179 3.32505 6.99827 3.80306 8.16546C4.25959 9.27881 4.00753 10.4317 3.37554 11.2008C2.59802 12.1471 1.90876 12.0045 1.02767 12.7214C-0.571151 14.0233 -0.307814 16.8491 1.84144 17.7344C2.74149 18.1051 3.46136 18.7303 3.74206 19.7688C4.15099 21.2793 3.3284 21.7312 3.2262 22.8934C3.03727 25.0372 5.11326 26.8182 7.43081 25.8904C8.60601 25.4196 9.71052 25.6392 10.5041 26.2797C11.4163 27.016 11.3116 27.815 11.9957 28.6578C12.5161 29.2982 13.6228 29.8764 14.8935 29.6104C16.9493 29.1808 16.7495 27.6972 17.7727 26.6937C18.0622 26.4101 18.4901 26.0958 19.0321 25.9485C20.5775 25.529 20.9743 26.3365 22.2151 26.4568C23.5536 26.5864 24.4128 25.8303 24.9004 25.1848C26.5944 22.9422 23.7075 21.6235 25.6182 19.1301C26.2603 18.2923 27.2234 18.2915 27.9989 17.6423C29.395 16.4738 29.3988 13.5819 27.154 12.6638C26.2182 12.2809 25.5215 11.694 25.2404 10.645C24.831 9.11683 25.593 8.72259 25.7411 7.53141C25.8968 6.27793 25.1908 5.28665 24.5571 4.80902C22.2686 3.08561 20.8405 5.9312 18.4809 4.12281C17.5241 3.38984 17.7058 2.62656 16.9788 1.75561C16.4676 1.14342 15.4215 0.508909 14.1887 0.765544V0.76556Z" fill="white"/>
<path fill-rule="evenodd" clip-rule="evenodd" d="M13.2989 31.7202C13.5383 30.9666 13.2905 30.9005 12.6934 30.6628C10.9577 29.9715 10.7272 28.9511 10.1326 27.8736C9.94332 27.5302 9.60886 27.168 9.1923 27.0093C8.56198 26.7699 8.19547 26.9845 7.67755 27.1764C5.8872 27.8395 5.20259 26.9938 4.7785 27.563C4.59588 27.8083 1.13893 37.4606 0.953805 37.9916C0.822059 38.3695 0.477928 38.988 0.750929 39.3221C1.14814 39.8076 1.6257 39.3132 1.93244 39.0957L6.17878 36.1886C6.81542 35.7444 6.85449 35.7927 7.36494 36.2547C8.2161 37.0252 9.34582 38.186 10.1209 38.8492C10.6821 39.3292 10.9986 38.94 11.1652 38.4035L13.2989 31.7202L13.2989 31.7202Z" fill="white"/>
<path fill-rule="evenodd" clip-rule="evenodd" d="M17.2377 36.6357C17.3853 37.1031 17.5188 37.526 17.6782 38.0107C17.8255 38.4597 17.8436 39.0626 18.4129 39.0378C18.7676 39.0223 20.053 37.6843 20.3644 37.4103C20.7148 37.1028 20.9374 36.8743 21.293 36.5347C21.7369 36.1102 22.0121 35.7728 22.4303 35.9532L24.5446 37.3855C24.9452 37.6716 25.27 37.8727 25.6121 38.1235C25.9159 38.3465 27.5126 39.5003 27.7676 39.5179C28.3954 39.5616 28.3668 38.9499 28.1993 38.5051C26.8988 35.0532 25.7219 31.4763 24.4033 28.053C24.1415 27.3735 23.834 27.5742 23.1532 27.6945C22.5923 27.7934 22.1231 27.769 21.5816 27.6491C20.1115 27.3234 19.2439 26.2261 18.115 28.5213C17.8886 28.9816 17.7077 29.2232 17.4173 29.5627C16.4054 30.7446 15.4852 30.4552 15.5205 31.2041L17.2377 36.6357V36.6357Z" fill="white"/>
<path fill-rule="evenodd" clip-rule="evenodd" d="M9.80072 17.4812C9.74009 17.5189 9.76701 17.4745 9.74219 17.5736C9.90557 17.5834 9.85264 17.5574 9.91964 17.5247C10.0005 17.4853 10.0002 17.5381 10.0718 17.4673C9.99764 17.4237 9.96029 17.5349 9.83966 17.5077C9.77547 17.4931 9.8209 17.4948 9.80072 17.4812V17.4812Z" fill="white"/>
<path fill-rule="evenodd" clip-rule="evenodd" d="M13.4204 19.3468L13.4363 19.2861C13.4333 19.2852 13.465 19.2771 13.4076 19.2853L13.2368 19.2447C13.2765 19.3504 13.1902 19.1456 13.2564 19.2822C13.2646 19.2991 13.2658 19.2932 13.2763 19.3229L13.4204 19.3468Z" fill="white"/>
<path fill-rule="evenodd" clip-rule="evenodd" d="M13.4074 19.2864C13.4649 19.2782 13.4332 19.2863 13.4361 19.2872L13.4202 19.3478L13.4858 19.3392C13.4817 19.3418 13.4755 19.3445 13.473 19.3459L13.4023 19.3905C13.5262 19.3657 13.4729 19.3575 13.5521 19.3289C13.4615 19.2642 13.536 19.3456 13.4605 19.2689L13.4473 19.2461C13.4376 19.255 13.4167 19.2775 13.4074 19.2864L13.4074 19.2864Z" fill="white"/>
<path fill-rule="evenodd" clip-rule="evenodd" d="M13.0544 18.9959C13.5764 18.7822 14.3172 17.9218 14.7953 17.5255C15.406 17.019 19.4888 13.4013 19.7093 13.0395C19.5586 12.6648 18.7704 11.9197 18.4828 11.627C17.9435 11.9249 13.5842 16.0983 13.1578 16.2817L10.5797 13.6003C10.3119 13.7545 9.33857 14.6805 9.17578 14.9415L13.0544 18.9959V18.9959Z" fill="white"/>
</svg>
