<svg width="42" height="42" viewBox="0 0 42 42" fill="none" xmlns="http://www.w3.org/2000/svg">
<circle cx="21" cy="21" r="21" fill="#073C1E"/>
<path d="M29.0176 16.4253C29.0579 17.5126 30.6182 17.5117 30.6582 16.4253V13.0433L29.0176 13.6429V16.4253Z" fill="white"/>
<path d="M12.6873 11.493L21.1194 14.5771C21.3014 14.6437 21.5008 14.6437 21.6828 14.5772L30.1206 11.4931C30.8342 11.2331 30.834 10.2121 30.1206 9.95223L21.6857 6.86827C21.5038 6.80172 21.3042 6.80172 21.1223 6.86827L12.6874 9.95223C11.9739 10.2122 11.9741 11.2332 12.6873 11.493Z" fill="white"/>
<path d="M15.7519 24.713C15.7519 23.1788 14.5036 21.9305 12.9694 21.9305C9.28311 22.0704 9.28415 27.3561 12.9694 27.4955C14.5036 27.4955 15.7519 26.2473 15.7519 24.713Z" fill="white"/>
<path d="M32.621 24.713C32.621 23.1788 31.3728 21.9305 29.8385 21.9305C26.1523 22.0704 26.1533 27.3561 29.8386 27.4955C31.3728 27.4955 32.621 26.2473 32.621 24.713Z" fill="white"/>
<path d="M18.6211 24.713C18.6211 26.2473 19.8693 27.4955 21.4036 27.4955C25.0898 27.3556 25.0889 22.0699 21.4035 21.9305C19.8693 21.9305 18.6211 23.1788 18.6211 24.713Z" fill="white"/>
<path d="M29.839 27.4956C28.7404 27.4956 27.7152 27.8157 26.8516 28.3674C27.9432 29.6291 28.604 31.2694 28.604 33.0605V34.8178H34.5836C35.0367 34.8178 35.4039 34.4505 35.4039 33.9975V33.0605C35.4039 29.992 32.9075 27.4956 29.839 27.4956Z" fill="white"/>
<path d="M21.3579 27.4956C18.2668 27.4956 15.752 29.992 15.752 33.0605V34.8178H26.9639V33.0605C26.9639 29.992 24.449 27.4956 21.3579 27.4956Z" fill="white"/>
<path d="M12.9692 27.4956C9.9007 27.4956 7.4043 29.992 7.4043 33.0605V33.9975C7.4043 34.4505 7.77157 34.8178 8.2246 34.8178H14.1109V33.0605C14.1109 31.2516 14.785 29.5963 15.8962 28.3296C15.0454 27.8013 14.0424 27.4956 12.9692 27.4956Z" fill="white"/>
<path d="M26.6183 17.4546V14.5205L22.2469 16.1183C21.7053 16.3176 21.0973 16.3176 20.5561 16.1178L16.1914 14.5214V17.4555C16.1914 17.7999 16.4065 18.1076 16.73 18.2259L21.1203 19.8316C21.3022 19.8981 21.5018 19.8981 21.6837 19.8316L26.0796 18.2251C26.4031 18.1069 26.6183 17.7991 26.6183 17.4546Z" fill="white"/>
</svg>
