<svg width="42" height="42" viewBox="0 0 42 42" fill="none" xmlns="http://www.w3.org/2000/svg">
<circle cx="21" cy="21" r="21" fill="#073C1E"/>
<path d="M28.6863 20.3746C26.3078 20.3746 24.3726 22.3793 24.3726 24.8432C24.3726 27.307 26.3078 29.3117 28.6863 29.3117C31.0647 29.3117 33 27.307 33 24.8432C33 22.3793 31.0647 20.3746 28.6863 20.3746ZM30.5152 24.1262C29.2612 26.0749 29.6168 25.5224 28.9466 26.5636C28.7058 26.9376 28.2184 27.0368 27.8588 26.7885L26.6824 25.976C26.3221 25.7272 26.225 25.223 26.4652 24.8492C26.7054 24.476 27.1922 24.3755 27.5529 24.6243L28.0765 24.9858C29.3274 23.0425 29.2601 23.0962 29.4706 22.9719C30.185 22.5439 30.9743 23.4119 30.5152 24.1262ZM25.1569 29.7149V34.1866C25.1569 34.8091 25.8077 35.2014 26.3304 34.8919L28.6863 33.4975L31.0422 34.8919C31.5627 35.2009 32.2157 34.8108 32.2157 34.1866V29.7149C30.1261 31.3435 27.2495 31.3459 25.1569 29.7149ZM30.2549 18.97V10.7646C30.2549 9.79165 29.4907 9 28.5515 9H14.7034C13.7642 9 13 9.79165 13 10.7646V29.5783C13 30.5513 13.7642 31.3429 14.7034 31.3429H23.5882C23.5882 27.8466 23.583 28.063 23.6005 27.9021C20.9749 23.2392 25.1557 17.5031 30.2549 18.97ZM17.7059 13.0623H24.3726C24.8059 13.0623 25.1569 13.4259 25.1569 13.8748C25.1569 14.3237 24.8059 14.6873 24.3726 14.6873H17.7059C17.2725 14.6873 16.9216 14.3237 16.9216 13.8748C16.9216 13.4259 17.2725 13.0623 17.7059 13.0623ZM21.6275 21.187H17.7059C17.2725 21.187 16.9216 20.8235 16.9216 20.3746C16.9216 19.9257 17.2725 19.5621 17.7059 19.5621H21.6275C22.0608 19.5621 22.4118 19.9257 22.4118 20.3746C22.4118 20.8235 22.0608 21.187 21.6275 21.187ZM17.7059 17.9372C17.2725 17.9372 16.9216 17.5736 16.9216 17.1247C16.9216 16.6758 17.2725 16.3122 17.7059 16.3122H24.3726C24.8059 16.3122 25.1569 16.6758 25.1569 17.1247C25.1569 17.5736 24.8059 17.9372 24.3726 17.9372H17.7059Z" fill="white"/>
</svg>
